<?xml version="1.0"?>
<svg xmlns="http://www.w3.org/2000/svg" xmlns:xlink="http://www.w3.org/1999/xlink" version="1.1" id="Layer_1" x="0px" y="0px" viewBox="0 0 512 512" style="enable-background:new 0 0 512 512;" xml:space="preserve" width="512px" height="512px" class=""><g><g>
	<g>
		<rect x="66.783" y="267.13" width="55.652" height="44.522" data-original="#000000" class="active-path" data-old_color="#000000" fill="#FFFFFF"/>
	</g>
</g><g>
	<g>
		<rect x="66.783" y="356.174" width="55.652" height="44.522" data-original="#000000" class="active-path" data-old_color="#000000" fill="#FFFFFF"/>
	</g>
</g><g>
	<g>
		<path d="M155.826,0v189.217H0V512h289.391V356.174h89.043V512H512V0H155.826z M155.826,478.609H33.391v-256h122.435V478.609z     M256,400.696h-44.522v-44.522H256V400.696z M256,311.652h-44.522V267.13H256V311.652z M256,222.609h-44.522v-44.522H256V222.609z     M256,133.565h-44.522V89.044H256V133.565z M356.174,311.652h-44.522V267.13h44.522V311.652z M356.174,222.609h-44.522v-44.522    h44.522V222.609z M356.174,133.565h-44.522V89.044h44.522V133.565z M456.348,400.696h-44.522v-44.522h44.522V400.696z     M456.348,311.652h-44.522V267.13h44.522V311.652z M456.348,222.609h-44.522v-44.522h44.522V222.609z M456.348,133.565h-44.522    V89.044h44.522V133.565z" data-original="#000000" class="active-path" data-old_color="#000000" fill="#FFFFFF"/>
	</g>
</g></g> </svg>
